<?xml version="1.0" standalone="no"?>
<!DOCTYPE svg PUBLIC "-//W3C//DTD SVG 20010904//EN"
 "http://www.w3.org/TR/2001/REC-SVG-20010904/DTD/svg10.dtd">
<svg version="1.0" xmlns="http://www.w3.org/2000/svg"
 width="5998.000000pt" height="3988.000000pt" viewBox="0 0 5998.000000 3988.000000"
 preserveAspectRatio="xMidYMid meet">

<g transform="translate(0.000000,3988.000000) scale(0.100000,-0.100000)"
fill="#000000" stroke="none">
<path d="M28680 39851 c-14 -4 -41 -16 -60 -26 -22 -12 -65 -19 -125 -22 -71
-4 -99 -10 -132 -29 -29 -17 -57 -24 -95 -24 -32 0 -71 -9 -98 -21 -47 -22
-157 -62 -225 -82 -22 -7 -110 -47 -196 -90 -86 -42 -160 -77 -165 -77 -5 0
-25 -11 -44 -24 -19 -12 -51 -28 -71 -35 -20 -6 -49 -25 -65 -42 -16 -17 -56
-44 -89 -59 -33 -15 -71 -40 -85 -55 -14 -15 -49 -39 -79 -52 -30 -13 -79 -47
-109 -74 -30 -28 -80 -63 -111 -79 -33 -17 -85 -58 -126 -100 -78 -80 -167
-154 -264 -220 -94 -63 -424 -390 -477 -473 -27 -42 -101 -124 -190 -210 -99
-96 -154 -158 -171 -192 -14 -27 -67 -93 -117 -145 -51 -52 -99 -111 -108
-131 -9 -19 -52 -74 -96 -122 -44 -47 -94 -110 -110 -139 -17 -29 -47 -69 -67
-88 -21 -19 -45 -53 -55 -75 -10 -22 -48 -73 -84 -113 -37 -40 -73 -89 -81
-107 -7 -19 -34 -56 -58 -82 -24 -27 -49 -64 -56 -84 -6 -19 -31 -55 -56 -79
-24 -24 -47 -57 -51 -73 -3 -17 -25 -51 -49 -76 -23 -25 -52 -66 -64 -90 -13
-24 -37 -59 -54 -78 -17 -19 -43 -54 -57 -78 -48 -84 -83 -140 -119 -190 -20
-27 -44 -67 -53 -88 -10 -21 -33 -57 -51 -80 -40 -50 -91 -133 -111 -182 -8
-19 -32 -57 -54 -83 -21 -26 -56 -83 -77 -127 -22 -44 -69 -124 -105 -179 -36
-54 -90 -146 -121 -205 -84 -158 -109 -202 -145 -246 -31 -38 -65 -99 -99
-175 -8 -19 -20 -42 -25 -50 -9 -13 -23 -40 -85 -160 -10 -19 -45 -79 -79
-132 -76 -121 -180 -311 -250 -458 -9 -19 -23 -46 -31 -60 -15 -29 -77 -149
-235 -455 -240 -468 -272 -531 -286 -555 -7 -14 -19 -37 -26 -52 -21 -44 -177
-351 -193 -378 -7 -14 -20 -38 -28 -55 -7 -16 -35 -73 -62 -125 -56 -112 -83
-169 -125 -270 -33 -79 -84 -192 -103 -225 -6 -11 -35 -67 -65 -125 -30 -58
-57 -109 -61 -115 -4 -5 -14 -26 -21 -45 -7 -19 -19 -42 -26 -50 -7 -8 -22
-41 -33 -72 -60 -167 -54 -153 -228 -488 -31 -61 -42 -85 -90 -215 -10 -27
-36 -84 -57 -125 -22 -41 -47 -93 -58 -115 -10 -22 -23 -47 -29 -55 -5 -8 -16
-31 -25 -50 -8 -19 -26 -58 -39 -85 -14 -28 -25 -60 -25 -72 0 -18 -128 -281
-150 -308 -5 -6 -13 -29 -19 -50 -11 -47 -55 -159 -76 -195 -9 -14 -33 -63
-56 -110 -22 -47 -48 -101 -59 -121 -10 -19 -21 -53 -25 -75 -4 -21 -17 -55
-30 -74 -12 -19 -26 -46 -30 -60 -4 -14 -29 -63 -55 -110 -26 -47 -50 -104
-53 -126 -4 -23 -41 -108 -82 -190 -42 -82 -80 -171 -85 -197 -6 -27 -18 -61
-28 -75 -11 -15 -24 -42 -30 -60 -6 -18 -20 -45 -30 -60 -11 -15 -23 -38 -27
-52 -4 -14 -16 -37 -27 -52 -11 -15 -21 -45 -24 -65 -3 -21 -29 -87 -59 -148
-75 -153 -102 -215 -110 -253 -6 -29 -75 -172 -95 -197 -5 -5 -11 -28 -15 -50
-4 -22 -16 -56 -26 -75 -68 -132 -139 -291 -139 -311 0 -13 -21 -64 -46 -114
-56 -110 -101 -213 -121 -280 -9 -27 -23 -61 -33 -75 -10 -14 -21 -36 -25 -50
-4 -14 -16 -37 -27 -52 -10 -15 -23 -49 -27 -75 -4 -27 -31 -93 -60 -147 -28
-55 -51 -107 -51 -116 0 -9 -11 -38 -25 -64 -14 -26 -25 -53 -25 -59 0 -7 -27
-66 -60 -132 -33 -66 -60 -131 -60 -146 0 -23 -20 -65 -97 -209 -7 -14 -13
-38 -13 -54 0 -16 -11 -48 -24 -70 -13 -23 -27 -52 -31 -66 -4 -14 -16 -37
-26 -51 -10 -14 -21 -38 -25 -55 -4 -16 -17 -50 -30 -76 -13 -26 -24 -53 -24
-60 0 -15 -78 -177 -95 -198 -7 -8 -16 -35 -20 -60 -6 -43 -78 -205 -95 -215
-5 -3 -11 -24 -15 -48 -5 -36 -40 -121 -78 -192 -11 -21 -16 -31 -60 -125 -14
-30 -29 -73 -32 -95 -4 -22 -11 -45 -16 -51 -24 -29 -88 -168 -94 -205 -6 -37
-68 -171 -93 -202 -5 -6 -13 -32 -17 -57 -4 -25 -18 -63 -30 -85 -13 -22 -26
-51 -30 -65 -4 -14 -16 -37 -26 -51 -10 -14 -21 -38 -25 -55 -4 -16 -17 -49
-29 -74 -12 -25 -26 -61 -30 -80 -4 -19 -18 -51 -31 -70 -13 -19 -24 -42 -24
-50 0 -9 -11 -31 -24 -48 -13 -18 -26 -51 -29 -75 -3 -23 -28 -85 -55 -137
-27 -52 -53 -115 -57 -140 -4 -25 -17 -61 -30 -80 -13 -19 -26 -46 -30 -60 -4
-14 -15 -36 -25 -50 -9 -14 -24 -45 -32 -70 -43 -120 -68 -182 -87 -213 -11
-19 -21 -41 -21 -49 0 -9 -9 -27 -20 -41 -11 -14 -25 -52 -31 -84 -6 -31 -19
-69 -28 -83 -10 -14 -24 -41 -31 -60 -7 -19 -19 -42 -26 -50 -7 -8 -18 -37
-25 -65 -6 -27 -20 -66 -29 -85 -100 -200 -140 -290 -140 -311 0 -14 -25 -74
-55 -134 -30 -59 -55 -119 -55 -134 0 -14 -11 -45 -24 -68 -13 -23 -29 -57
-35 -76 -7 -20 -18 -41 -26 -47 -8 -6 -19 -28 -26 -48 -6 -20 -20 -49 -30 -64
-11 -14 -22 -48 -25 -75 -3 -26 -14 -59 -23 -73 -32 -47 -80 -155 -91 -204 -6
-27 -20 -61 -30 -77 -11 -15 -20 -32 -20 -38 0 -10 -32 -97 -71 -191 -10 -25
-23 -63 -28 -85 -6 -22 -31 -80 -55 -128 -25 -48 -50 -105 -57 -125 -6 -20
-47 -108 -90 -194 -44 -87 -79 -163 -79 -169 0 -13 -44 -114 -111 -257 -27
-56 -53 -120 -59 -141 -6 -22 -40 -104 -76 -183 -37 -79 -72 -165 -79 -193 -8
-27 -44 -115 -80 -195 -37 -80 -75 -167 -85 -195 -22 -61 -30 -79 -102 -225
-31 -64 -63 -134 -72 -156 -8 -21 -26 -70 -39 -107 -14 -37 -30 -73 -35 -80
-5 -7 -28 -70 -52 -142 -48 -148 -59 -172 -135 -289 -55 -86 -89 -157 -120
-256 -9 -30 -42 -102 -73 -160 -100 -192 -142 -276 -142 -290 0 -19 -79 -195
-141 -315 -95 -184 -124 -245 -185 -390 -20 -49 -70 -155 -110 -235 -97 -194
-186 -382 -215 -454 -22 -54 -95 -202 -273 -551 -39 -77 -79 -158 -88 -180 -9
-22 -33 -76 -53 -120 -20 -44 -45 -102 -55 -130 -29 -81 -67 -161 -108 -228
-21 -34 -46 -83 -56 -107 -10 -25 -21 -49 -26 -55 -17 -22 -90 -218 -128 -347
-23 -75 -73 -206 -112 -290 -39 -84 -91 -201 -116 -259 -50 -119 -135 -268
-192 -338 -69 -84 -108 -145 -182 -286 -71 -137 -182 -335 -225 -405 -12 -19
-61 -111 -110 -205 -49 -93 -104 -195 -123 -225 -87 -135 -127 -212 -192 -367
-99 -232 -106 -246 -170 -353 -31 -52 -74 -135 -95 -183 -20 -48 -59 -127 -86
-175 -48 -85 -84 -157 -159 -317 -20 -44 -66 -116 -101 -159 -157 -194 -319
-440 -377 -571 -81 -185 -132 -274 -200 -349 -56 -63 -83 -107 -156 -254 -49
-97 -108 -207 -132 -244 -24 -37 -44 -69 -44 -71 0 -13 -160 -260 -221 -342
-20 -27 -49 -73 -63 -102 -14 -29 -39 -67 -55 -85 -15 -18 -39 -53 -51 -78
-12 -25 -36 -61 -51 -82 -16 -20 -36 -54 -45 -75 -9 -21 -39 -63 -68 -95 -111
-122 -146 -167 -165 -209 -10 -24 -33 -57 -51 -74 -18 -16 -43 -54 -56 -83
-14 -29 -44 -74 -68 -100 -24 -26 -64 -78 -89 -117 -25 -38 -60 -83 -77 -100
-18 -16 -41 -50 -52 -75 -10 -25 -36 -63 -57 -85 -21 -22 -55 -66 -75 -98 -20
-33 -57 -80 -81 -106 -25 -26 -52 -65 -61 -86 -9 -22 -47 -71 -85 -110 -37
-39 -76 -88 -85 -110 -9 -22 -46 -71 -83 -110 -37 -38 -80 -92 -96 -120 -16
-27 -63 -86 -106 -130 -42 -45 -87 -101 -99 -125 -12 -25 -64 -88 -116 -141
-52 -53 -101 -113 -110 -135 -10 -24 -62 -85 -136 -158 -74 -74 -129 -138
-144 -169 -17 -33 -85 -110 -200 -227 -96 -97 -194 -206 -218 -241 -62 -92
-1337 -1339 -1404 -1373 -54 -27 -113 -76 -247 -207 -76 -74 -138 -125 -169
-139 -28 -14 -98 -70 -168 -135 -85 -80 -132 -116 -160 -124 -25 -8 -65 -37
-111 -80 -40 -38 -92 -77 -117 -88 -25 -11 -74 -47 -110 -80 -36 -33 -85 -69
-110 -80 -25 -11 -77 -50 -117 -86 -39 -36 -84 -68 -100 -71 -15 -4 -54 -29
-85 -55 -32 -27 -70 -52 -85 -55 -16 -4 -54 -29 -85 -55 -32 -27 -71 -52 -86
-56 -16 -3 -44 -22 -63 -42 -19 -19 -57 -46 -86 -59 -29 -13 -69 -39 -90 -57
-21 -18 -82 -56 -136 -83 -55 -27 -115 -63 -135 -79 -21 -17 -85 -55 -144 -83
-60 -29 -123 -65 -140 -81 -18 -15 -123 -72 -233 -125 -110 -53 -207 -101
-215 -105 -8 -4 -70 -38 -137 -74 -67 -37 -128 -67 -135 -67 -7 0 -64 -25
-128 -56 -63 -31 -133 -65 -155 -75 -22 -10 -60 -28 -85 -39 -25 -11 -56 -27
-70 -35 -71 -41 -260 -125 -280 -125 -13 0 -42 -8 -64 -19 -23 -10 -70 -32
-106 -49 -36 -16 -76 -33 -90 -37 -14 -4 -40 -17 -59 -28 -19 -11 -56 -24 -84
-28 -27 -5 -57 -15 -66 -23 -9 -8 -44 -22 -76 -29 -33 -8 -78 -24 -100 -36
-22 -11 -47 -21 -56 -21 -9 0 -28 -9 -42 -21 -15 -11 -53 -24 -86 -30 -33 -5
-76 -18 -94 -29 -18 -11 -56 -23 -83 -27 -27 -3 -65 -17 -84 -30 -20 -13 -49
-23 -71 -23 -20 0 -56 -11 -80 -24 -25 -13 -70 -26 -101 -30 -31 -4 -68 -16
-81 -26 -13 -11 -52 -24 -86 -29 -34 -6 -73 -19 -88 -30 -16 -14 -41 -21 -67
-21 -23 0 -65 -11 -96 -26 -34 -15 -81 -28 -123 -31 -48 -4 -76 -12 -99 -29
-24 -18 -45 -24 -87 -24 -37 0 -73 -8 -106 -23 -27 -13 -76 -27 -109 -31 -35
-4 -71 -15 -89 -28 -22 -16 -52 -23 -111 -28 -57 -5 -92 -13 -116 -28 -28 -18
-51 -22 -115 -22 -68 0 -89 -4 -140 -29 l-60 -29 29775 -1 29775 -1 -55 27
c-49 23 -72 27 -200 33 -121 6 -151 10 -185 28 -33 19 -55 22 -150 22 -100 0
-115 2 -160 27 -41 22 -69 28 -155 34 -67 4 -125 14 -160 28 -40 14 -79 20
-140 21 -69 0 -92 4 -120 22 -26 16 -60 23 -133 29 -74 6 -106 13 -134 30 -27
17 -56 24 -117 27 -54 3 -94 11 -121 25 -26 13 -71 22 -131 27 -72 5 -98 11
-123 29 -25 18 -53 25 -114 30 -55 5 -95 14 -122 29 -26 14 -57 22 -90 22 -32
0 -65 8 -89 21 -22 11 -69 25 -105 31 -36 5 -81 19 -99 30 -21 13 -58 22 -100
26 -43 3 -83 13 -112 28 -25 13 -61 24 -81 24 -20 0 -57 11 -82 24 -25 14 -67
28 -93 32 -27 4 -68 18 -93 30 -24 13 -60 24 -80 24 -20 0 -53 9 -73 20 -21
11 -59 25 -84 30 -26 6 -70 22 -99 35 -28 14 -65 25 -81 25 -16 0 -51 12 -79
25 -27 14 -62 25 -76 25 -14 0 -48 12 -74 26 -27 14 -67 29 -89 34 -46 9 -128
40 -196 75 -25 12 -62 26 -84 29 -37 7 -109 37 -190 79 -22 11 -60 26 -85 33
-65 17 -134 47 -306 129 -173 84 -289 135 -303 135 -21 0 -381 176 -432 210
-14 10 -99 54 -190 99 -91 46 -172 87 -180 92 -8 5 -42 22 -75 39 -33 17 -91
50 -130 75 -38 25 -94 57 -124 72 -58 28 -206 116 -231 138 -8 7 -37 22 -65
34 -27 12 -63 35 -80 50 -16 16 -55 41 -85 56 -30 15 -71 40 -90 55 -19 15
-54 37 -77 49 -23 11 -57 34 -75 50 -18 15 -53 39 -78 51 -25 12 -67 40 -95
62 -27 22 -64 46 -82 53 -17 7 -61 38 -97 69 -36 30 -82 64 -103 75 -21 10
-70 46 -110 79 -40 34 -94 73 -120 88 -26 15 -79 55 -118 89 -38 34 -92 74
-120 88 -27 14 -88 61 -135 104 -47 44 -116 98 -153 121 -37 23 -128 99 -203
169 -74 70 -164 146 -200 168 -66 39 -203 169 -1004 944 -431 417 -460 447
-509 521 -24 36 -110 130 -190 210 -82 81 -170 178 -198 220 -28 41 -95 118
-148 170 -53 52 -110 120 -128 150 -17 30 -70 96 -117 145 -48 50 -97 108
-110 130 -13 22 -59 78 -102 124 -43 45 -89 104 -103 130 -13 25 -49 71 -80
101 -31 30 -68 77 -82 105 -14 27 -54 79 -88 115 -35 36 -74 88 -88 115 -14
28 -49 73 -77 100 -28 28 -63 72 -77 99 -13 27 -44 69 -67 95 -23 25 -58 71
-77 101 -19 30 -53 76 -76 103 -24 26 -50 62 -59 80 -9 17 -38 57 -64 87 -26
30 -51 65 -54 78 -4 13 -29 49 -56 80 -26 32 -55 74 -65 93 -9 18 -30 48 -45
64 -16 17 -44 55 -62 86 -18 31 -50 79 -71 105 -49 63 -99 136 -134 198 -15
26 -46 71 -69 100 -23 28 -51 71 -64 96 -12 25 -37 61 -56 80 -18 19 -40 52
-49 73 -8 20 -31 55 -51 76 -19 22 -48 66 -65 98 -40 80 -65 120 -108 178 -21
28 -46 66 -56 85 -10 19 -34 55 -54 80 -20 25 -57 85 -81 134 -25 48 -61 107
-81 130 -19 22 -58 83 -85 134 -27 52 -63 110 -80 130 -17 20 -55 82 -84 137
-29 54 -72 124 -96 153 -24 30 -44 59 -44 65 0 7 -14 32 -30 57 -16 25 -30 51
-30 58 0 8 -10 28 -22 45 -13 18 -30 48 -39 67 -9 19 -32 54 -52 78 -20 24
-59 87 -86 141 -60 118 -102 190 -146 251 -17 25 -39 59 -47 75 -72 142 -145
272 -219 395 -48 80 -121 210 -162 290 -134 260 -211 400 -252 455 -12 17 -45
73 -73 125 -151 286 -338 649 -667 1295 -76 149 -163 320 -195 380 -32 61
-108 209 -170 330 -62 121 -119 231 -126 245 -22 41 -74 159 -74 167 0 16
-347 718 -370 748 -7 9 -29 60 -107 240 -25 58 -240 502 -289 596 -13 26 -24
53 -24 61 0 11 -86 188 -147 303 -34 63 -73 147 -73 155 0 18 -78 193 -150
334 -38 77 -70 143 -70 148 0 17 -81 198 -150 333 -38 76 -73 155 -76 174 -4
20 -41 108 -84 196 -89 182 -140 297 -140 317 0 7 -7 27 -16 43 -67 125 -143
286 -149 315 -4 19 -43 107 -86 197 -44 90 -79 171 -79 182 0 10 -36 90 -79
178 -44 88 -85 179 -91 204 -7 24 -31 85 -55 134 -76 159 -103 222 -110 254
-4 18 -31 78 -61 135 -30 57 -54 110 -54 118 0 7 -12 36 -25 63 -14 28 -25 55
-25 61 0 6 -24 60 -54 120 -29 60 -57 125 -61 144 -7 34 -19 60 -117 270 -25
52 -48 109 -52 125 -4 17 -29 75 -56 130 -26 55 -51 116 -55 135 -4 19 -13 46
-20 60 -56 107 -144 301 -149 328 -3 19 -28 77 -54 131 -27 53 -52 114 -56
135 -4 21 -27 77 -50 124 -66 133 -103 217 -111 251 -3 17 -27 70 -51 118 -25
49 -52 113 -60 143 -8 30 -34 95 -59 145 -24 49 -60 133 -80 185 -21 52 -58
140 -85 195 -26 55 -51 116 -55 135 -4 19 -29 78 -56 131 -27 52 -52 111 -55
130 -4 19 -29 79 -55 134 -26 55 -54 118 -62 140 -32 86 -60 154 -107 251 -26
55 -51 116 -55 135 -4 19 -29 77 -55 129 -27 52 -51 111 -55 130 -4 18 -29 79
-55 135 -26 55 -53 119 -59 142 -6 23 -16 45 -21 48 -4 3 -14 22 -20 43 -7 20
-37 88 -66 150 -30 62 -54 120 -54 130 0 10 -24 67 -54 127 -29 61 -57 126
-61 145 -4 19 -28 76 -52 125 -24 50 -51 108 -58 130 -20 59 -66 167 -119 276
-25 53 -46 105 -46 115 0 11 -25 69 -55 129 -30 61 -55 116 -55 123 0 14 -41
113 -86 207 -32 69 -84 192 -84 200 0 4 -25 59 -55 122 -30 63 -55 123 -55
134 0 10 -23 62 -50 116 -48 93 -61 123 -111 261 -11 31 -27 64 -35 73 -8 8
-14 19 -14 23 0 3 -16 39 -35 79 -19 39 -35 78 -35 86 0 13 -12 40 -80 186
-57 122 -78 173 -85 202 -3 18 -31 80 -61 139 -30 59 -54 113 -54 120 0 7 -11
34 -25 60 -14 26 -25 53 -25 61 0 8 -25 62 -55 120 -30 58 -55 116 -55 128 0
12 -11 42 -23 66 -13 24 -29 61 -36 81 -7 20 -18 42 -26 48 -8 6 -19 28 -26
48 -6 20 -20 49 -30 63 -10 14 -23 47 -29 73 -6 27 -19 64 -30 84 -58 112
-131 271 -136 301 -4 19 -42 103 -85 187 -42 85 -80 168 -84 186 -4 18 -15 47
-25 63 -10 17 -21 41 -25 55 -3 14 -30 75 -59 135 -87 180 -104 218 -115 261
-6 23 -18 47 -26 54 -8 7 -15 18 -15 25 0 7 -26 63 -58 126 -32 63 -62 129
-65 147 -4 19 -54 129 -111 245 -107 217 -166 347 -166 366 0 10 -40 95 -75
161 -44 83 -144 289 -150 310 -4 14 -13 34 -20 46 -8 12 -21 46 -30 77 -9 31
-20 59 -24 62 -15 9 -273 534 -381 775 -28 63 -56 122 -61 130 -5 8 -16 31
-24 50 -8 19 -22 46 -30 60 -8 14 -22 41 -30 60 -9 19 -20 43 -25 52 -5 9 -59
113 -119 230 -60 117 -148 290 -196 383 -48 94 -156 305 -240 470 -285 559
-280 550 -389 730 -69 115 -101 174 -163 300 -47 95 -77 146 -178 310 -34 55
-82 138 -105 185 -23 47 -66 121 -95 165 -29 44 -81 132 -115 195 -35 63 -81
139 -102 168 -22 29 -46 69 -54 87 -8 19 -45 81 -83 137 -38 57 -76 119 -86
138 -10 19 -32 53 -50 75 -18 22 -42 58 -54 80 -32 59 -99 165 -131 205 -15
19 -39 58 -53 85 -14 28 -37 61 -52 75 -15 14 -38 48 -50 75 -13 28 -37 64
-55 80 -17 17 -43 53 -57 80 -14 28 -41 67 -59 87 -18 20 -43 56 -55 80 -12
24 -50 75 -84 113 -35 39 -70 87 -78 108 -9 20 -38 61 -65 90 -27 28 -67 79
-87 112 -21 33 -67 89 -101 125 -35 36 -71 83 -80 105 -9 21 -58 82 -108 134
-51 53 -101 112 -111 131 -10 19 -86 105 -169 190 -84 85 -175 189 -203 230
-58 85 -383 402 -482 469 -33 22 -115 93 -183 157 -68 63 -143 126 -168 139
-25 13 -79 52 -120 87 -41 35 -90 69 -108 76 -18 6 -54 29 -80 51 -26 22 -65
47 -87 56 -21 10 -62 37 -89 61 -28 24 -55 44 -60 44 -9 0 -140 62 -351 167
-49 25 -114 51 -144 59 -30 8 -60 19 -65 23 -6 5 -36 16 -66 24 -30 9 -73 25
-95 37 -24 12 -59 20 -90 20 -34 0 -61 7 -85 22 -27 16 -59 23 -136 29 -77 5
-112 13 -145 31 -43 23 -48 23 -384 25 -187 1 -351 -2 -365 -6z"/>
</g>
</svg>
